<svg version="1.0" xmlns="http://www.w3.org/2000/svg" width="800.000000" height="800.000000" viewBox="0 0 800.000000 800.000000" preserveAspectRatio="xMidYMid meet">
  <metadata>
    <rdf:RDF xmlns:rdf="http://www.w3.org/1999/02/22-rdf-syntax-ns#" xmlns:rdfs="http://www.w3.org/2000/01/rdf-schema#" xmlns:dc="http://purl.org/dc/elements/1.1/">
      <rdf:Description dc:format="image/svg+xml" dc:Label="1" dc:ContentProducer="001191330110MACRLGPT8B00000" dc:ProduceID="385120572" dc:ReservedCode1="aKwbDCII6qg57DTDrSNab3zXDJpjuHBrlyExZBEqdkg=" dc:ContentPropagator="001191330110MACRLGPT8B00000" dc:PropagateID="385120572" dc:ReservedCode2="aKwbDCII6qg57DTDrSNab3zXDJpjuHBrlyExZBEqdkg="/>
    </rdf:RDF>
  </metadata>
  <g transform="translate(0.000000,800.000000) scale(0.100000,-0.100000)" fill="#000000" stroke="none">
    <path d="M2074 5555 c-110 -24 -192 -79 -241 -162 -59 -102 -56 -19 -59 -1353 -1 -753 1 -1250 7 -1290 6 -35 19 -85 30 -110 29 -65 103 -137 176 -171 l63 -29 2030 0 c2021 0 2030 0 2084 21 77 28 148 96 188 177 l33 67 0 1290 0 1290 -31 66 c-51 108 -136 175 -254 203 -57 14 -299 16 -2015 15 -1583 0 -1962 -3 -2011 -14z m211 -548 l0 -387 -170 -2 -170 -2 -3 304 c-3 341 0 359 63 420 43 41 108 60 205 57 l75 -2 0 -388z m3785 383 c54 -15 102 -50 127 -95 23 -39 23 -44 20 -358 l-2 -318 -1717 1 c-1545 0 -1721 -1 -1748 -15 -36 -19 -53 -57 -45 -97 14 -62 -118 -58 1782 -58 l1733 0 0 -853 0 -854 -23 -44 c-18 -33 -37 -51 -76 -71 l-53 -28 -1807 2 -1806 3 -3 1385 c-1 762 0 1390 2 1397 6 16 3558 19 3616 3z m-3785 -1865 l0 -920 -107 0 c-102 0 -108 1 -150 30 -25 18 -52 49 -65 75 l-23 44 0 841 c0 463 3 845 7 849 4 3 81 5 172 4 l166 -3 0 -920z"/>
    <path d="M2745 5134 c-18 -13 -20 -29 -23 -130 -4 -131 6 -168 46 -181 40 -12 239 -1 254 15 9 9 14 53 16 135 4 113 2 124 -18 150 -21 27 -23 27 -138 27 -88 -1 -122 -4 -137 -16z"/>
    <path d="M5243 5119 c-109 -54 -119 -217 -18 -279 81 -49 177 -29 226 49 54 84 27 184 -61 229 -55 28 -93 28 -147 1z"/>
    <path d="M5720 5118 c-98 -67 -111 -179 -31 -259 51 -52 112 -61 178 -28 65 32 95 85 90 156 -8 121 -142 195 -237 131z"/>
    <path d="M3245 5035 c-32 -31 -32 -75 -2 -111 l23 -26 255 1 254 1 23 26 c29 34 29 78 -3 109 l-24 25 -251 0 -251 0 -24 -25z"/>
    <path d="M5805 3995 l-25 -24 0 -385 0 -385 23 -25 c12 -15 36 -29 54 -32 27 -5 37 -1 63 24 l30 30 0 387 0 386 -25 24 c-33 34 -87 34 -120 0z"/>
    <path d="M2762 2977 c-30 -32 -29 -87 1 -115 l23 -22 1345 0 1346 0 21 23 c30 32 29 87 -1 115 l-23 22 -1345 0 -1346 0 -21 -23z"/>
  </g>
</svg>